<svg width="126" height="65" viewBox="0 0 126 65" fill="none" xmlns="http://www.w3.org/2000/svg">
<g clip-path="url(#clip0_8_1021)">
<path d="M102.187 28.6071C101.622 27.4567 100.834 26.5669 99.8104 25.9441C98.7934 25.3212 97.624 25.0034 96.302 25.0034C94.98 25.0034 93.8106 25.3212 92.7936 25.9441C91.7767 26.5669 90.9823 27.4567 90.4166 28.6071C89.8509 29.7575 89.5713 31.1049 89.5713 32.6366V36.0878C89.5713 37.6259 89.8509 38.9669 90.4166 40.1173C90.9823 41.2677 91.7704 42.1575 92.7936 42.7804C93.8106 43.4032 94.98 43.7083 96.302 43.7083C97.624 43.7083 98.7871 43.4032 99.8104 42.7804C100.827 42.1575 101.444 41.452 102.009 40.3016C102.276 39.7551 102.505 39.0623 102.639 38.3632L99.4227 37.6195C99.2892 38.3123 99.0413 38.9606 98.6854 39.4246C98.107 40.1682 97.2617 40.5114 96.3084 40.5114C95.355 40.5114 94.5033 40.1682 93.9313 39.4246C93.3529 38.6809 93.0669 37.6195 93.0669 36.2975V35.001H103.039V32.6303C103.039 31.0986 102.759 29.7511 102.194 28.6008L102.187 28.6071ZM96.302 28.2194C97.2617 28.2194 98.107 28.5563 98.679 29.2872C99.2002 29.9482 99.4862 30.9397 99.5307 32.0901H93.0606C93.1114 30.946 93.3974 29.9482 93.9123 29.2872C94.4906 28.5563 95.3296 28.2194 96.2893 28.2194H96.302Z" fill="white"/>
<path d="M77.3428 43.2952V31.5117C77.3428 30.5202 77.6225 29.7321 78.1754 29.1537C78.7284 28.5753 79.4338 28.283 80.2792 28.283C81.1245 28.283 81.8236 28.5753 82.3829 29.1537C82.9358 29.7321 83.2155 30.5202 83.2155 31.5117V43.2952H86.6984V30.768C86.6984 28.9567 86.2281 27.5393 85.2811 26.5224C84.3405 25.5055 83.0566 24.9971 81.4359 24.9971C80.5397 24.9971 79.7516 25.1687 78.9953 25.5309C78.239 25.8932 77.667 26.3635 77.3365 26.8593V17.8977H73.8535V43.2825H77.3365L77.3428 43.2952Z" fill="white"/>
<path d="M61.4024 36.2594C61.4024 37.5814 61.6947 38.6364 62.2858 39.3673C62.8705 40.0983 63.7222 40.4351 64.6819 40.4351C66.4107 40.4351 67.4784 39.3292 67.8852 37.1238L71.1203 37.8801C70.8533 39.7296 70.186 41.1597 69.1055 42.1766C68.025 43.1935 66.5505 43.7083 64.6819 43.7083C62.6417 43.7083 61.0083 43.0155 59.769 41.6427C58.5359 40.2635 57.9131 38.4013 57.9131 36.0497V32.6684C57.9131 30.3168 58.5296 28.4546 59.769 27.0754C61.002 25.6962 62.6417 25.0098 64.6819 25.0098C66.5505 25.0098 68.025 25.5182 69.1055 26.5415C70.186 27.5584 70.8533 28.9948 71.1203 30.838L67.8852 31.5943C67.4784 29.3889 66.4107 28.283 64.6819 28.283C63.7222 28.283 62.8705 28.6198 62.2858 29.3507C61.6947 30.0816 61.4024 31.1367 61.4024 32.4587V36.2721V36.2594Z" fill="white"/>
<path d="M48.5071 40.4478C47.5474 40.4478 46.7021 40.1046 46.13 39.361C45.5517 38.6174 45.2657 37.556 45.2657 36.234V32.4587C45.2657 31.1367 45.5517 30.0816 46.13 29.3507C46.7084 28.6198 47.5474 28.283 48.5071 28.283C49.4668 28.283 50.3121 28.6198 50.8841 29.3507C51.4625 30.0816 51.7485 31.1367 51.7485 32.4587V36.234C51.7485 37.556 51.4625 38.6174 50.8841 39.361C50.3057 40.1046 49.4604 40.4478 48.5071 40.4478ZM48.5071 43.7147C49.8227 43.7147 50.9922 43.4096 52.0154 42.7867C53.0324 42.1639 53.8268 41.2741 54.3925 40.1237C54.9581 38.9733 55.2378 37.6322 55.2378 36.0942V32.643C55.2378 31.1113 54.9581 29.7638 54.3925 28.6135C53.8268 27.4631 53.0387 26.5733 52.0154 25.9504C50.9985 25.3276 49.8291 25.0098 48.5071 25.0098C47.1851 25.0098 46.0156 25.3276 44.9987 25.9504C43.9818 26.5733 43.1873 27.4631 42.6217 28.6135C42.056 29.7638 41.7764 31.1113 41.7764 32.643V36.0942C41.7764 37.6322 42.056 38.9733 42.6217 40.1237C43.1873 41.2741 43.9754 42.1639 44.9987 42.7867C46.0156 43.4096 47.1851 43.7147 48.5071 43.7147Z" fill="white"/>
<path d="M29.8399 28.6452V21.2472H33.3546C34.2952 21.2472 35.0325 21.5522 35.5473 22.156C36.0685 22.7598 36.3291 23.6941 36.3291 24.9462C36.3291 26.1983 36.0685 27.1326 35.5473 27.7364C35.0261 28.3402 34.2952 28.6452 33.3546 28.6452H29.8399ZM29.8399 43.2952V31.982H32.8271C33.6851 31.982 34.2507 32.1917 34.6257 32.5731C35.0007 32.9608 35.2105 33.59 35.3058 34.4798L36.2846 43.2952H39.7802L38.7252 34.1557C38.6044 33.0688 38.4646 32.3443 38.0197 31.7023C37.6129 31.124 37.0409 30.6346 36.3672 30.4185C37.4286 29.91 38.2739 29.2045 38.8904 28.2957C39.5069 27.3868 39.8184 26.1347 39.8184 24.5394C39.8184 22.4865 39.2463 20.8658 38.0959 19.6773C36.9456 18.4951 35.3693 17.8977 33.3609 17.8977H26.3633V43.2825H29.8399V43.2952Z" fill="white"/>
<path d="M125.055 32.4968L96.804 64.9937H28.2512L0 32.4968L28.2512 0H96.804L125.055 32.4968ZM95.2977 61.6887L120.676 32.4968L95.2977 3.30498H29.7575L4.37909 32.4968L29.7575 61.6887H95.2977Z" fill="white"/>
</g>
<defs>
<clipPath id="clip0_8_1021">
<rect width="125.055" height="65" fill="white"/>
</clipPath>
</defs>
</svg>
