<svg width="34" height="28" viewBox="0 0 34 28" fill="none" xmlns="http://www.w3.org/2000/svg">
<g clip-path="url(#clip0_58_777)">
<path d="M33.9947 5.40573C33.9947 5.40573 33.9947 5.40573 33.9947 5.40527C33.9896 4.72366 33.4268 4.17179 32.7322 4.17088L8.34297 4.14255L7.55546 0.981648C7.49742 0.7482 7.3753 0.546275 7.21232 0.389577C6.98387 0.162069 6.66719 0.020447 6.31615 0.0195333L1.27347 0.00537109H1.26976C0.573257 0.00537109 0.00769734 0.55998 0.00537567 1.2457C0.00351833 1.9328 0.567685 2.49106 1.26605 2.49335L5.33083 2.50522L9.97976 21.1591C9.99926 21.2381 10.0267 21.3135 10.0601 21.3848C10.2129 21.9015 10.6972 22.2793 11.2715 22.2802L29.2952 22.309H29.2975C29.9949 22.309 30.5605 21.7535 30.5619 21.0673C30.5628 20.3802 29.9977 19.8224 29.2998 19.8215L12.2434 19.794L11.8682 18.2897L30.2229 16.0534C30.2703 16.0484 30.3167 16.0406 30.3627 16.0301C30.3655 16.0296 30.3687 16.0287 30.3715 16.0283C30.3873 16.0246 30.4031 16.0205 30.4184 16.0164C30.4235 16.015 30.4281 16.0137 30.4332 16.0123C30.4472 16.0082 30.4606 16.0041 30.4741 16C30.4904 15.9949 30.5066 15.989 30.5229 15.9831C30.527 15.9817 30.5317 15.9799 30.5359 15.9785C30.5493 15.9735 30.5623 15.968 30.5758 15.9625C30.5786 15.9611 30.5818 15.9602 30.5846 15.9588C30.5986 15.9529 30.6125 15.9465 30.6264 15.9401C30.6273 15.9401 30.6283 15.9392 30.6292 15.9387C30.6877 15.9113 30.7434 15.8793 30.7964 15.8442C30.7991 15.8423 30.8019 15.8405 30.8047 15.8387C30.8149 15.8318 30.8251 15.8245 30.8354 15.8172C30.8409 15.8131 30.8465 15.809 30.8521 15.8049C30.8604 15.7985 30.8683 15.7925 30.8767 15.7862C30.8855 15.7793 30.8939 15.772 30.9027 15.7651C30.9078 15.761 30.9129 15.7569 30.918 15.7523C31.0364 15.6505 31.1367 15.5257 31.2105 15.3828C31.2124 15.3796 31.2138 15.3764 31.2157 15.3732C31.2222 15.3604 31.2282 15.348 31.2342 15.3348C31.2375 15.3275 31.2407 15.3202 31.244 15.3129C31.2477 15.3042 31.2514 15.296 31.2551 15.2873C31.2593 15.2768 31.2635 15.2667 31.2677 15.2562C31.2695 15.2512 31.2714 15.2462 31.2732 15.2416C31.2853 15.2087 31.2964 15.1754 31.3057 15.1411L33.9497 5.77669C33.9831 5.65836 33.9975 5.53913 33.9956 5.42218C33.9956 5.42035 33.9956 5.41806 33.9956 5.41624C33.9956 5.41258 33.9956 5.40893 33.9956 5.40573H33.9947ZM30.3446 9.24779L26.3671 9.50043V6.65154L31.0759 6.65703L30.3446 9.24779ZM19.5683 11.1976V14.8446L15.3373 15.3599V11.4662L19.5683 11.1976ZM15.3373 10.2003V6.63875L19.5683 6.64378V9.93169L15.3373 10.2003ZM20.8522 11.1163L25.0832 10.8477V14.1726L20.8522 14.6879V11.1158V11.1163ZM20.8522 9.85037V6.64515L25.0832 6.65017V9.58175L20.8522 9.85037ZM14.0534 6.63738V10.2821L9.93843 10.5434L8.96379 6.6319L14.0538 6.63784L14.0534 6.63738ZM11.2622 15.8565L10.2486 11.7892L14.0534 11.548V15.5166L11.2622 15.8565ZM26.3671 14.0163V10.7663L29.9805 10.537L29.0918 13.6842L26.3666 14.0163H26.3671Z" fill="black"/>
<path d="M26.5759 27.995C27.9328 27.995 29.0327 26.9128 29.0327 25.5778C29.0327 24.2428 27.9328 23.1606 26.5759 23.1606C25.2191 23.1606 24.1191 24.2428 24.1191 25.5778C24.1191 26.9128 25.2191 27.995 26.5759 27.995Z" fill="black" stroke="white" stroke-width="0.23" stroke-miterlimit="10"/>
<path d="M13.9954 27.995C15.3522 27.995 16.4522 26.9128 16.4522 25.5778C16.4522 24.2428 15.3522 23.1606 13.9954 23.1606C12.6385 23.1606 11.5386 24.2428 11.5386 25.5778C11.5386 26.9128 12.6385 27.995 13.9954 27.995Z" fill="black" stroke="white" stroke-width="0.23" stroke-miterlimit="10"/>
</g>
<defs>
<clipPath id="clip0_58_777">
<rect width="34" height="28" fill="white"/>
</clipPath>
</defs>
</svg>
