<svg width="281" height="281" viewBox="0 0 281 281" fill="none" xmlns="http://www.w3.org/2000/svg">
<path opacity="0.1" d="M129.375 6.65445C134.399 -1.7702 146.601 -1.7702 151.625 6.65445C155.768 13.6012 165.193 15.0941 171.28 9.76753C178.662 3.30777 190.266 7.07823 192.441 16.6431C194.234 24.5301 202.737 28.8625 210.172 25.6776C219.189 21.8151 229.06 28.9869 228.173 38.7557C227.441 46.8109 234.189 53.5589 242.244 52.8273C252.013 51.9401 259.185 61.8113 255.322 70.8278C252.137 78.2626 256.47 86.7656 264.357 88.559C273.922 90.7339 277.692 102.338 271.232 109.72C265.906 115.807 267.399 125.232 274.346 129.375C282.77 134.399 282.77 146.601 274.346 151.625C267.399 155.768 265.906 165.193 271.232 171.28C277.692 178.662 273.922 190.266 264.357 192.441C256.47 194.234 252.137 202.737 255.322 210.172C259.185 219.189 252.013 229.06 242.244 228.173C234.189 227.441 227.441 234.189 228.173 242.244C229.06 252.013 219.189 259.185 210.172 255.322C202.737 252.137 194.234 256.47 192.441 264.357C190.266 273.922 178.662 277.692 171.28 271.232C165.193 265.906 155.768 267.399 151.625 274.346C146.601 282.77 134.399 282.77 129.375 274.346C125.232 267.399 115.807 265.906 109.72 271.232C102.338 277.692 90.7339 273.922 88.559 264.357C86.7656 256.47 78.2626 252.137 70.8278 255.322C61.8113 259.185 51.9401 252.013 52.8273 242.244C53.5589 234.189 46.8109 227.441 38.7557 228.173C28.9869 229.06 21.8151 219.189 25.6776 210.172C28.8625 202.737 24.5301 194.234 16.6431 192.441C7.07823 190.266 3.30777 178.662 9.76753 171.28C15.0941 165.193 13.6012 155.768 6.65445 151.625C-1.7702 146.601 -1.7702 134.399 6.65445 129.375C13.6012 125.232 15.0941 115.807 9.76753 109.72C3.30777 102.338 7.07823 90.7339 16.6431 88.559C24.5301 86.7656 28.8625 78.2626 25.6776 70.8278C21.8151 61.8113 28.9869 51.9401 38.7557 52.8273C46.8109 53.5589 53.5589 46.8109 52.8273 38.7557C51.9401 28.9869 61.8113 21.8151 70.8278 25.6776C78.2626 28.8625 86.7656 24.5301 88.559 16.6431C90.7339 7.07823 102.338 3.30777 109.72 9.76753C115.807 15.0941 125.232 13.6012 129.375 6.65445Z" fill="#8EB927"/>
</svg>
